<?xml version="1.0" encoding="utf-8"?>
<!-- Generator: Adobe Illustrator 25.4.1, SVG Export Plug-In . SVG Version: 6.00 Build 0)  -->
<svg version="1.1" id="Capa_1" xmlns="http://www.w3.org/2000/svg" xmlns:xlink="http://www.w3.org/1999/xlink" x="0px" y="0px"
	 viewBox="0 0 186.6 65.7" style="enable-background:new 0 0 186.6 65.7;" xml:space="preserve">
<style type="text/css">
	.st0{fill:#5C3C05;}
	.st1{fill:#B37B38;}
	.st2{fill:#E2BD8F;}
	.st3{fill:#010101;}
	.st4{fill:#0D0D0D;}
	.st5{fill:#626262;}
	.st6{fill:#7B7B7B;}
	.st7{fill:#424242;}
	.st8{fill:#7C7C7C;}
	.st9{fill:#0E0E0E;}
	.st10{fill:#FFFFFF;}
</style>
<g>
	<path class="st0" d="M165,15.1H68.8C63.4,6.6,54,1,43.4,1C26.7,1,13.2,14.7,13.2,31.6s13.5,30.6,30.2,30.6c8.6,0,16.3-3.6,21.8-9.4
		H165c5.8,0,10.5-5.1,10.5-11.3V26.4C175.5,20.2,170.8,15.1,165,15.1z"/>
	<path d="M43.4,62.8c-16.9,0-30.7-14-30.7-31.1c0-17.2,13.8-31.1,30.7-31.1c10.4,0,20,5.3,25.7,14.1h96c6.1,0,11,5.3,11,11.8v15.2
		c0,6.5-4.9,11.8-11,11.8H65.3C59.5,59.5,51.7,62.8,43.4,62.8z M43.4,1.5C27,1.5,13.7,15,13.7,31.6S27,61.8,43.4,61.8
		c8.1,0,15.7-3.3,21.4-9.3l0.1-0.2H165c5.5,0,10-4.9,10-10.8V26.4c0-6-4.5-10.8-10-10.8H68.5l-0.1-0.2C62.8,6.7,53.5,1.5,43.4,1.5z"
		/>
</g>
<g>
	<path class="st1" d="M161.9,19.8H64.2c-0.3,0-0.6,0-0.8,0C59.2,12,51.3,6.7,42.1,6.7C28.8,6.7,18,18,18,32.1s10.8,25.4,24.2,25.4
		c8,0,15.1-4.1,19.5-10.5c0.8,0.2,1.6,0.3,2.5,0.3h97.8c6.8,0,12.4-5.9,12.4-13v-1.4C174.3,25.7,168.7,19.8,161.9,19.8z"/>
	<path d="M42.1,57.9c-13.6,0-24.7-11.6-24.7-25.9S28.5,6.2,42.1,6.2c8.9,0,17.1,5,21.5,13.2c0.2,0,0.4,0,0.5,0h97.8
		c7.1,0,12.9,6.1,12.9,13.5v1.4c0,7.4-5.8,13.5-12.9,13.5H64.2c-0.8,0-1.5-0.1-2.3-0.2C57.3,54.1,49.9,57.9,42.1,57.9z M42.1,7.2
		c-13,0-23.7,11.2-23.7,24.9c0,13.7,10.6,24.9,23.7,24.9c7.5,0,14.7-3.8,19.1-10.3l0.2-0.3l0.3,0.1c0.8,0.2,1.6,0.3,2.4,0.3h97.8
		c6.5,0,11.9-5.6,11.9-12.5v-1.4c0-6.9-5.3-12.5-11.9-12.5H64.2c-0.2,0-0.4,0-0.6,0l-0.5,0l-0.2-0.3C58.7,12.1,50.8,7.2,42.1,7.2z"
		/>
</g>
<g>
	<g>
		<g>
			<path class="st2" d="M34.7,27.2c0.3,0.4,0.6,0.7,0.8,1.1c0.1,0.1,0.1,0.1,0.2,0c0.4-0.5,0.4-0.5,0-0.9c-0.2-0.2-0.4-0.4-0.5-0.6
				c-0.1-0.1-0.1-0.2,0-0.2c0.3-0.4,0.7-0.8,1-1.2c0.1-0.1,0.2-0.1,0.2,0c0.3,0.3,0.5,0.6,0.8,0.9c0.1,0.1,0.1,0.1,0.3,0
				c0.4-0.5,0.4-0.4,0-0.9c-0.2-0.2-0.4-0.4-0.5-0.6c-0.1-0.1-0.1-0.2,0-0.3c0.3-0.4,0.7-0.8,1-1.1c0.1-0.1,0.2-0.1,0.3,0
				c0.3,0.3,0.5,0.6,0.8,0.9c0.1,0.2,0.2,0.1,0.3,0c0.4-0.4,0.4-0.4,0-0.9c-0.2-0.2-0.4-0.4-0.6-0.7c-0.1-0.1-0.1-0.2,0-0.3
				c0.3-0.4,0.7-0.8,1-1.2c0.1-0.1,0.2-0.1,0.3,0c0.3,0.3,0.5,0.6,0.8,0.9c0.1,0.1,0.1,0.1,0.2,0c0.4-0.5,0.4-0.5,0-0.9
				c-0.2-0.2-0.3-0.4-0.5-0.6c-0.1-0.1-0.1-0.2,0-0.4c0.3-0.3,0.6-0.7,0.9-1.1c0.1-0.1,0.2-0.2,0.3,0c0.3,0.3,0.5,0.6,0.8,0.9
				c0.1,0.1,0.1,0.1,0.2,0c0.4-0.5,0.4-0.5,0-0.9c-0.2-0.2-0.4-0.5-0.6-0.7c0,0,0,0-0.1-0.1c0.1,0,0.2,0,0.3,0c0.6,0,1.2,0,1.9,0
				c0.1,0,0.2,0,0.4,0.2c1,1.2,2,2.3,3,3.5c0.1,0.1,0.2,0.2,0.4,0.2c0.4,0,0.9,0,1.4,0c-0.3,0.3-0.5,0.6-0.7,0.9
				c-0.1,0.2-0.3,0.3-0.4,0.5c-0.4,0.4-0.5,0.9-0.5,1.5c0,2.6,0,5.3,0,7.9c0,0.6-0.2,0.8-0.6,0.8c-0.6,0-1.2,0-1.8,0
				c-0.1,0-0.2,0-0.3-0.1c-1-1.1-1.9-2.2-2.9-3.3c0,0,0,0,0-0.1c0.2-0.1,0.4-0.3,0.6-0.5c0.3-0.5,0.2-1.2-0.2-1.5
				c-0.4-0.4-1-0.3-1.4,0.2c-0.3,0.4-0.3,1.1,0.1,1.5c1,1.2,2,2.3,3,3.5c1.1,1.3,2.3,2.7,3.5,4c0.1,0.1,0.1,0.2,0.1,0.4
				c0,1.1,0,2.2,0,3.4c0,0.2,0,0.3-0.2,0.3c-4.3,0-8.5,0-12.8,0c-0.2,0-0.2-0.1-0.2-0.3c0-1.1,0-2.2,0-3.4c0-0.2,0-0.3,0.1-0.4
				c1-1.2,2-2.3,3-3.5c0.1-0.2,0.1-0.2,0-0.4c-1-1.1-2-2.3-3-3.4c-0.1-0.1-0.2-0.3-0.2-0.5c0-0.8,0-1.6,0-2.4
				C34.7,27.2,34.7,27.2,34.7,27.2z"/>
		</g>
		<g>
			<path d="M47.7,41.8L47.7,41.8c-4.1,0-8.5,0-12.8,0l0,0c-0.1,0-0.3,0-0.4-0.2c-0.1-0.1-0.2-0.3-0.2-0.5c0-1.2,0-2.4,0-3.4
				c0-0.3,0.1-0.4,0.2-0.6c0.4-0.5,0.9-1,1.3-1.5c0.5-0.6,1.1-1.3,1.6-1.9c-0.5-0.6-1-1.2-1.5-1.8c-0.5-0.5-0.9-1.1-1.4-1.6
				c-0.2-0.2-0.3-0.4-0.3-0.7c0-0.6,0-1.2,0-1.8v-0.8l0.5-0.4l0.5,0.6c0.2,0.2,0.3,0.4,0.5,0.6c0,0,0,0,0,0c0-0.1-0.1-0.1-0.2-0.2
				c-0.1-0.1-0.1-0.1-0.2-0.2c-0.1-0.1-0.2-0.3-0.4-0.4c-0.2-0.2-0.2-0.5,0-0.7c0.4-0.5,0.7-0.8,1-1.2c0.1-0.1,0.2-0.2,0.4-0.2l0,0
				c0.2,0,0.3,0.2,0.4,0.2c0.1,0.1,0.2,0.2,0.3,0.4c0.1,0.1,0.2,0.3,0.3,0.4c0,0,0,0,0,0c0-0.1-0.1-0.1-0.2-0.2l-0.1-0.1
				c-0.2-0.2-0.3-0.4-0.5-0.5c-0.2-0.2-0.2-0.5,0-0.8c0.4-0.4,0.7-0.8,1-1.1c0.1-0.1,0.3-0.2,0.4-0.2l0,0c0.2,0,0.4,0.2,0.4,0.2
				c0.1,0.1,0.2,0.2,0.3,0.4c0.1,0.1,0.2,0.2,0.3,0.4c0,0,0,0,0,0c0-0.1-0.1-0.1-0.2-0.2L39,23.4c-0.2-0.2-0.3-0.4-0.5-0.6
				c-0.3-0.3-0.1-0.6,0-0.8c0.4-0.4,0.7-0.8,1-1.2c0.1-0.1,0.3-0.2,0.4-0.2l0,0c0.2,0,0.4,0.2,0.4,0.2c0.1,0.2,0.3,0.3,0.4,0.5
				c0.1,0.1,0.1,0.2,0.2,0.3c0,0,0,0,0,0c0-0.1-0.1-0.2-0.2-0.2c0,0-0.1-0.1-0.1-0.2c-0.1-0.2-0.2-0.3-0.4-0.4
				c-0.2-0.2-0.4-0.5,0-0.9c0.3-0.4,0.6-0.7,0.9-1.1c0.1-0.1,0.2-0.2,0.4-0.2l0,0c0.2,0,0.4,0.2,0.4,0.2c0.1,0.2,0.3,0.3,0.4,0.5
				c0.1,0.1,0.1,0.2,0.2,0.2c0,0,0,0,0-0.1c0-0.1-0.1-0.1-0.2-0.2l-0.1-0.1c-0.2-0.2-0.3-0.4-0.5-0.5c0,0,0-0.1-0.1-0.1l0,0L41.6,18
				H43c0.4,0,0.9,0,1.4,0c0.3,0,0.5,0.1,0.6,0.3c0.5,0.6,1,1.1,1.5,1.7c0.5,0.6,1,1.2,1.6,1.8c0,0,0.1,0,0.1,0c0.3,0,0.6,0,1,0
				c0.1,0,0.3,0,0.4,0h0.8l-0.7,0.9c-0.2,0.2-0.3,0.4-0.5,0.6c0,0-0.1,0.1-0.1,0.1c-0.1,0.1-0.2,0.3-0.3,0.4
				c-0.3,0.3-0.4,0.6-0.4,1.2c0,2,0,3.9,0,5.9c0,0.7,0,1.4,0,2.1c0,0.3,0,1.1-1,1.1c-0.6,0-1.2,0-1.8,0c0,0-0.1,0-0.1,0
				c0.9,1,1.8,2,2.6,3.1c0.2,0.2,0.2,0.4,0.2,0.6c0,0.9,0,2.1,0,3.4c0,0.1,0,0.3-0.2,0.5C48,41.8,47.7,41.8,47.7,41.8z M41.1,41.1
				c2.2,0,4.3,0,6.4,0c0-1.2,0-2.4,0-3.3c0-0.1,0-0.1-0.1-0.2c-0.9-1.1-1.9-2.2-2.8-3.3l-1.4-1.7c-0.7-0.9-1.5-1.7-2.2-2.6
				c-0.5-0.5-0.5-1.4-0.1-2c0.2-0.3,0.6-0.5,0.9-0.6c0.4,0,0.7,0.1,1,0.3c0.5,0.5,0.7,1.3,0.3,2c-0.1,0.2-0.2,0.3-0.3,0.4l0.6,0.7
				c0.7,0.8,1.4,1.6,2.1,2.4c0,0,0,0,0,0c0.6,0,1.2,0,1.8,0c0.2,0,0.3,0,0.3-0.4c0-0.7,0-1.4,0-2.1c0-1.9,0-3.9,0-5.9
				c0-0.6,0.1-1.2,0.7-1.8c0.1-0.1,0.2-0.2,0.2-0.3c0-0.1,0.1-0.1,0.1-0.2c0.1-0.1,0.1-0.2,0.2-0.3c-0.2,0-0.4,0-0.6,0
				c-0.3,0-0.5-0.1-0.7-0.3c-0.5-0.6-1-1.2-1.6-1.8c-0.5-0.6-1-1.1-1.5-1.7c0,0,0,0-0.1,0c-0.5,0-0.9,0-1.4,0h0c0,0,0,0,0,0l0.1,0.1
				c0.5,0.6,0.5,0.8,0,1.4l0,0c0,0-0.2,0.2-0.4,0.2c-0.2,0-0.3-0.2-0.4-0.2c-0.1-0.1-0.2-0.3-0.3-0.4c-0.1-0.1-0.2-0.2-0.3-0.4
				c-0.2,0.3-0.5,0.6-0.8,0.9c0.1,0.1,0.2,0.3,0.3,0.4c0,0,0.1,0.1,0.1,0.1c0.5,0.6,0.5,0.8,0,1.4l0,0c0,0-0.2,0.2-0.4,0.2
				c-0.2,0-0.3-0.2-0.4-0.2c-0.1-0.1-0.2-0.3-0.4-0.4c-0.1-0.1-0.2-0.2-0.3-0.3c-0.2,0.3-0.5,0.6-0.8,0.9c0.1,0.2,0.3,0.3,0.4,0.5
				l0.1,0.1c0.5,0.6,0.5,0.8,0,1.3l0,0c-0.1,0.1-0.2,0.2-0.4,0.2c-0.2,0-0.4-0.2-0.4-0.2c-0.1-0.2-0.3-0.3-0.4-0.5
				c-0.1-0.1-0.1-0.2-0.2-0.2c-0.2,0.3-0.5,0.6-0.8,0.9c0.1,0.2,0.3,0.3,0.4,0.5l0.1,0.1c0.5,0.6,0.5,0.8,0,1.4l0,0
				c0,0-0.2,0.2-0.4,0.2c-0.2,0-0.3-0.2-0.4-0.2c-0.2-0.2-0.3-0.4-0.5-0.5c-0.1-0.1-0.1-0.1-0.2-0.2c-0.2,0.3-0.5,0.6-0.8,0.9
				c0.1,0.1,0.2,0.2,0.3,0.3c0.1,0.1,0.1,0.1,0.2,0.2c0.5,0.6,0.5,0.8,0,1.4l0,0c0,0.1-0.2,0.2-0.4,0.2s-0.3-0.2-0.4-0.2
				c-0.1-0.1-0.2-0.2-0.3-0.4c0,0.5,0,1,0,1.6c0,0.1,0,0.2,0.1,0.2c0.5,0.5,0.9,1.1,1.4,1.6c0.5,0.6,1.1,1.2,1.6,1.8
				c0.2,0.3,0.3,0.6,0,0.9c-0.6,0.6-1.1,1.3-1.7,1.9c-0.4,0.5-0.9,1-1.3,1.5c0,0-0.1,0.1,0,0.2c0,1,0,2.1,0,3.3
				C37.1,41.1,39.1,41.1,41.1,41.1z M42,28.3C42,28.3,41.9,28.3,42,28.3c-0.2,0-0.4,0.1-0.5,0.3c-0.2,0.3-0.2,0.8,0,1.1
				c0.1,0.1,0.2,0.2,0.3,0.4l0.2-0.1c0.2-0.1,0.3-0.2,0.4-0.4c0.2-0.4,0.1-0.8-0.2-1.1C42.2,28.4,42.1,28.3,42,28.3z"/>
		</g>
	</g>
	<g>
		<g>
			<path class="st2" d="M49.9,45c-5.8,0-11.6,0-17.5,0c0.4-0.4,0.7-0.8,1.1-1.2c0.3-0.3,0.6-0.7,0.9-1c0.1-0.1,0.2-0.1,0.3-0.1
				c4.3,0,8.7,0,13,0c0.1,0,0.2,0,0.2,0.1C48.6,43.4,49.3,44.2,49.9,45z"/>
		</g>
		<g>
			<path d="M50.7,45.3H31.6l1.9-2.1c0.2-0.2,0.4-0.5,0.6-0.7c0.2-0.2,0.3-0.3,0.6-0.3l0,0c4.3,0,8.7,0,13,0c0.1,0,0.3,0,0.5,0.2
				c0.5,0.6,0.9,1.1,1.4,1.7L50.7,45.3z M33.2,44.6h15.9c-0.5-0.6-0.9-1.1-1.4-1.7l0,0c-4.3,0-8.7,0-13,0l0,0c0,0,0,0,0,0l0,0
				c-0.2,0.2-0.4,0.5-0.7,0.7L33.2,44.6z"/>
		</g>
	</g>
	<g>
		<g>
			<path class="st2" d="M45.5,25.8c1.4-0.1,1.7,0.3,1.6,1.9C46.6,27.1,46,26.4,45.5,25.8z"/>
		</g>
		<g>
			<path d="M47.4,28.6l-2.6-3.1l0.7-0.1c0.5-0.1,1.2-0.1,1.6,0.3c0.4,0.4,0.5,1.2,0.4,1.9L47.4,28.6z M46.3,26.2l0.5,0.5
				c0-0.2-0.1-0.3-0.2-0.4C46.5,26.2,46.4,26.2,46.3,26.2z"/>
		</g>
	</g>
</g>
<g>
	<g>
		<g>
			<path class="st3" d="M24.6,45.1c-0.1-0.1-0.1-0.1-0.1-0.2c0-0.5,0-0.9,0.1-1.4c0.2-1,0.9-1.7,1.8-1.9c0,0,0.1,0,0.1-0.1
				c-0.1-0.5,0-1,0.1-1.4c0.2-0.7,0.6-1.3,1.2-1.8c0,0,0,0,0.1-0.1c-0.1-0.1-0.2-0.1-0.2-0.1c-0.3-0.2-0.4-0.5-0.4-0.9
				c0.1-1,0.4-1.9,0.8-2.8c0.4-0.9,0.8-1.7,1.1-2.6c0.3-1.1,0.5-2.2,0.5-3.3c0-0.1,0-0.1-0.1-0.1c-0.2,0-0.5,0-0.7,0
				c-0.6-0.1-1-0.6-1.1-1.2c-0.1-0.6,0.2-1.2,0.6-1.5c0.2-0.1,0.2-0.1,0.1-0.3c-0.1-0.6,0-1.1,0.4-1.5c0.1-0.1,0.1-0.1,0-0.2
				c-0.4-0.8-0.7-1.7-0.6-2.7c0-0.8,0.2-1.6,0.5-2.3c0.4-1,0.9-1.9,1.6-2.6c0.2-0.2,0.2-0.2,0-0.3c-0.6-0.9-0.4-2.1,0.3-2.8
				c0.1-0.1,0.1-0.1,0.2-0.2c0.1-0.2,0.3-0.3,0.5-0.3c0,0,0,0,0.1,0c0,0,0,0,0,0c0.1,0,0.1-0.1,0.1-0.1c0.1,0,0.1,0,0.2,0
				c0.4-0.1,0.9,0,1.3,0.2c0.8,0.4,1.2,1,1.3,1.9c0,0.5-0.1,1-0.4,1.4c-0.1,0.1,0,0.1,0,0.2c0.7,0.6,1.1,1.4,1.5,2.3
				c0.3,0.7,0.6,1.4,0.7,2.2c0.2,1.2,0,2.3-0.6,3.3c0,0.1,0,0.1,0,0.1c0.4,0.4,0.6,1,0.4,1.6c0,0.1,0,0.1,0.1,0.1
				c0.6,0.3,0.9,1,0.7,1.7c-0.2,0.7-0.7,1.1-1.3,1.1c-0.1,0-0.3,0-0.4,0c-0.1,0-0.1,0-0.1,0.1c0,0.6,0.1,1.1,0.2,1.7
				c0.2,1.2,0.6,2.4,1.1,3.5c0.3,0.7,0.6,1.5,0.9,2.2c0.1,0.5,0.2,0.9,0.3,1.4c0,0.4-0.1,0.6-0.4,0.8c-0.1,0-0.1,0.1-0.2,0.1
				c0,0.1,0,0.1,0.1,0.1c0.8,0.6,1.2,1.5,1.3,2.5c0,0.2,0,0.5,0,0.7c0,0.1,0,0.1,0.1,0.1c0.9,0.2,1.5,0.8,1.8,1.7
				C40,43.5,40,43.7,40,44c0,0.3,0,0.6,0,0.9c0,0.2-0.1,0.4-0.3,0.4c0,0-0.1,0-0.1,0c-2.1,0-4.3,0-6.4,0c-0.1,0-0.2,0-0.3-0.1
				c-0.1-0.1-0.1-0.1-0.2,0c0,0,0,0-0.1,0c0,0-0.1,0-0.1,0c-1.9,0-3.9,0-5.8,0c-0.2,0-0.2,0-0.2-0.2c0-0.2,0-0.4-0.1-0.6
				c0-0.1,0-0.2,0.1-0.2c0,0,0.1,0,0.1,0c3.9,0,7.9,0,11.8,0c0.2,0,0.3,0,0.4-0.1c0,0,0.1-0.1,0.1-0.1c0-0.6-0.3-1.1-0.8-1.3
				c-0.1-0.1-0.2-0.1-0.3-0.1c-0.1,0-0.3-0.1-0.4-0.1c-0.1,0-0.1-0.1-0.1-0.1c0.1-0.3,0-0.5-0.1-0.7c0-0.1-0.1-0.1-0.1-0.2
				c0-0.1-0.1-0.1-0.1-0.2c0.1-0.4,0-0.8-0.2-1.2c-0.1-0.3-0.2-0.6-0.4-0.8c-0.3-0.4-0.7-0.6-1.1-0.7c-0.4-0.1-0.7,0-1.1,0
				c-0.1,0-0.3,0-0.4,0c-0.4,0-0.7,0.1-1.1,0c-0.1,0-0.1,0-0.2-0.1c0,0,0,0,0-0.1c0.1-0.2,0.1-0.4,0.1-0.6c0-0.2,0-0.3,0.2-0.3
				c0.1,0,0.2,0,0.4,0c0.1,0,0.1,0,0.2-0.1c0,0,0.1-0.1,0.1-0.1c0.6,0,1.3-0.1,1.9-0.2c0.3,0,0.5-0.1,0.8-0.2
				c0.2-0.1,0.2-0.1,0.2-0.3c-0.1-0.6-0.3-1.2-0.5-1.8c-0.3-0.7-0.6-1.4-0.9-2c-0.4-1-0.7-2.1-0.9-3.2C34,29.5,34,29.1,34,28.6
				c0-0.1,0-0.2-0.2-0.2c-0.2,0-0.5,0-0.7,0c-0.8,0-1.5,0-2.3,0c-0.2,0-0.2,0-0.2,0.2c0,0.5-0.1,1.1-0.2,1.6
				c-0.1,0.9-0.4,1.8-0.7,2.6c-0.2,0.6-0.4,1.1-0.7,1.6c-0.2,0.5-0.5,1-0.6,1.6c-0.1,0.3-0.2,0.7-0.2,1.1c0,0.1,0,0.2,0.1,0.3
				c0.3,0.1,0.5,0.2,0.8,0.2c0.5,0.1,1,0.1,1.5,0.2c0.1,0,0.2,0,0.3,0c0.1,0,0.2,0,0.3,0.1c0.1,0.1,0.1,0,0.2-0.1c0.1,0,0.1,0,0.2,0
				c0,0,0,0.1,0,0.1c0,0.1-0.2,0.2-0.3,0.2c-0.3-0.1-0.5,0-0.7,0.2c-0.1,0.1-0.3,0.2-0.3,0.4c-0.1,0-0.1,0-0.2,0c-0.1,0-0.3,0-0.4,0
				c-0.4,0-0.8,0.1-1.2,0.3c-0.4,0.3-0.6,0.6-0.8,1c-0.2,0.3-0.2,0.7-0.2,1.1c0,0.3,0.1,0.4,0.4,0.4c0.3,0,0.7,0,1,0
				c0.1,0,0.1,0,0.2,0c0.2,0.1,0.2,0.3,0.2,0.5c-0.1,0.4-0.5,0.5-0.8,0.2c-0.1-0.1-0.2-0.2-0.3-0.4c-0.1-0.1-0.1-0.1-0.2,0
				c0,0,0,0-0.1,0.1c-0.2,0.1-0.2,0.2-0.2,0.4s0,0.2-0.2,0.2c-0.1,0-0.2,0-0.3,0c-0.1,0-0.3-0.1-0.4,0.1c0,0,0,0-0.1,0
				c-0.5,0.1-0.8,0.4-1,0.8c0,0.1-0.1,0.2-0.1,0.3c0,0,0,0.1-0.1,0.1c-0.5,0.2-0.7,0.5-0.8,1c0,0,0,0.1,0,0.1
				C24.7,45,24.6,45.1,24.6,45.1z"/>
		</g>
	</g>
	<g>
		<g>
			<path class="st4" d="M39.1,44.3C39.1,44.3,39.1,44.3,39.1,44.3c-0.1,0.1-0.2,0.1-0.2,0.1c-4,0-8.1,0-12.1,0c0,0-0.1,0-0.1,0
				c-0.2,0-0.2,0-0.1,0.2c0.1,0.2,0.1,0.4,0,0.6c0,0.1,0,0.1,0.1,0.1c0,0,0.1,0,0.1,0c1.9,0,3.8,0,5.7,0c0.1,0,0.2,0,0.1-0.1
				c0-0.1,0.1-0.2,0.2-0.1c0,0,0.1,0,0.1,0.1c0.1,0.1,0.2,0.2,0.3,0.2c2.1,0,4.3,0,6.4,0c0,0-0.1,0-0.1,0c-4.3,0-8.6,0-12.9,0
				c-0.6,0-1.1,0-1.7,0c-0.1,0-0.2,0-0.3-0.2c0-0.2,0-0.4,0-0.5c0.1-0.4,0.4-0.8,0.8-0.8c0.1,0,0.1,0.1,0,0.2c0,0.2,0,0.2,0.2,0.2
				c0.1,0,0.1,0,0.2,0c4.3,0,8.7,0,13,0C38.9,44.2,39,44.2,39.1,44.3z"/>
		</g>
	</g>
	<g>
		<g>
			<path class="st5" d="M31.6,37.8c-0.1,0-0.1,0-0.2,0c0,0-0.1,0.1-0.1,0c-0.1-0.1-0.2,0-0.3-0.1c-0.7,0-1.4-0.1-2-0.2
				c-0.2,0-0.5-0.1-0.7-0.2c-0.1,0-0.1-0.1-0.1-0.2c0.1-0.6,0.2-1.1,0.4-1.6c0.3-0.7,0.6-1.4,0.9-2.2c0.5-1.2,0.8-2.4,1-3.7
				c0-0.4,0.1-0.8,0.1-1.1c0-0.1,0-0.1,0.1-0.1c1.1,0,2.2,0,3.2,0c0.1,0,0.2,0,0.2,0.2c0,1.2,0.2,2.4,0.6,3.6c0.3,0.9,0.6,1.7,1,2.6
				c0.3,0.7,0.6,1.3,0.7,2.1c0,0.1,0,0.3,0.1,0.4c0,0.1,0,0.1-0.1,0.2c-0.1,0.1-0.2,0.1-0.3,0.1c-0.5,0.1-1.1,0.2-1.6,0.2
				c-0.3,0-0.5,0-0.8,0.1c-0.1,0-0.1,0-0.2,0.1c0,0-0.1,0-0.1,0c-0.3,0-0.5,0-0.8,0c-0.2,0-0.5,0-0.7,0
				C31.6,37.8,31.6,37.8,31.6,37.8z"/>
		</g>
	</g>
	<g>
		<g>
			<path class="st6" d="M32.2,23.5c-0.8,0-1.5,0-2.3,0c-0.1,0-0.1,0-0.2-0.1c-0.6-1.1-0.8-2.2-0.5-3.4c0.3-1.2,0.9-2.3,1.7-3.2
				c0.2-0.2,0.5-0.4,0.7-0.6c0.4-0.2,0.7-0.2,1.1,0s0.6,0.4,0.9,0.8c0.9,1,1.4,2.2,1.6,3.6c0.2,1,0,1.9-0.5,2.8
				c-0.1,0.1-0.2,0.2-0.3,0.2C33.7,23.5,33,23.5,32.2,23.5z"/>
		</g>
	</g>
	<g>
		<g>
			<path class="st7" d="M32.6,38.7c0.7,0,1.5-0.1,2.2-0.1c0.7,0,1.3,0.2,1.8,0.8c0.4,0.5,0.6,1.1,0.6,1.7c0,0.1,0,0.1,0,0.2
				c0,0.2-0.1,0.3-0.3,0.3c-0.4,0-0.9,0-1.3,0c-0.1,0-0.2,0-0.3,0c-1.9,0-3.8,0-5.7,0c-0.1,0-0.2,0-0.3,0c-0.1,0-0.2,0-0.4-0.1
				c-0.4,0-0.8,0-1.2,0c-0.3,0-0.4-0.2-0.4-0.5c0-0.4,0.1-0.9,0.3-1.2c0.3-0.6,0.7-1,1.4-1.2c0.3-0.1,0.7-0.1,1,0c0.1,0,0.1,0,0.2,0
				c0-0.1,0.1-0.1,0.2,0c0.1,0,0.2,0,0.3,0c0.1,0,0.3,0,0.4,0c0.2,0,0.4,0,0.6,0c0.1,0,0.2,0,0.3,0c0.1,0,0.2,0,0.4,0
				C32.4,38.7,32.5,38.7,32.6,38.7C32.6,38.7,32.6,38.7,32.6,38.7z"/>
		</g>
	</g>
	<g>
		<g>
			<path class="st5" d="M39.1,44.3c-0.1,0-0.1,0-0.2,0c-3.8,0-7.6,0-11.4,0c-0.7,0-1.4,0-2,0c-0.2,0-0.2,0-0.2-0.2
				c0-0.1,0-0.2,0-0.3c0.1-0.3,0.2-0.5,0.3-0.7c0.2-0.3,0.5-0.4,0.8-0.5c0.2,0,0.4-0.1,0.6,0c0.2,0,0.4,0,0.6-0.1c0.3,0,0.6,0,0.9,0
				c2.1,0,4.3,0,6.4,0c0.3,0,0.6,0,1,0c0.3,0,0.6,0,0.9,0c0.1,0,0.2,0,0.3,0c0.2,0,0.5,0.1,0.7,0.1c0.7,0.2,1.2,0.7,1.2,1.6
				C39.1,44.2,39.1,44.2,39.1,44.3z"/>
		</g>
	</g>
	<g>
		<g>
			<path class="st5" d="M32.2,27.4c-1.1,0-2.1,0-3.2,0c-0.2,0-0.3-0.1-0.4-0.2c-0.2-0.3,0-0.7,0.3-0.7c0.1,0,0.1,0,0.2,0
				c1,0,2.1,0,3.1,0c0.1,0,0.2,0,0.3-0.1c0.2-0.1,0.2-0.3,0.2-0.5c-0.1-0.2-0.2-0.3-0.4-0.3c-0.8,0-1.7,0-2.5,0
				c-0.1,0-0.2,0-0.3-0.1c-0.2-0.1-0.3-0.3-0.2-0.5c0-0.2,0.2-0.4,0.4-0.4c0,0,0,0,0.1,0c1.6,0,3.3,0,4.9,0c0.4,0,0.6,0.4,0.4,0.7
				c-0.1,0.2-0.2,0.2-0.4,0.2c-0.3,0-0.6,0-0.8,0c-0.3,0-0.5,0.2-0.5,0.5c0,0.3,0.2,0.5,0.5,0.5c0.5,0,1,0,1.5,0
				c0.1,0,0.3,0,0.4,0.2c0.1,0.1,0.2,0.3,0.1,0.5c-0.1,0.2-0.2,0.3-0.4,0.3c-0.1,0-0.2,0-0.3,0C34.2,27.4,33.2,27.4,32.2,27.4z"/>
		</g>
	</g>
	<g>
		<g>
			<path class="st8" d="M32.3,13.3c0.5,0,0.9,0.2,1.1,0.8c0.2,0.4,0.1,0.9-0.2,1.2c-0.1,0.1-0.1,0-0.2,0c-0.3-0.1-0.6-0.2-0.8-0.2
				c-0.3,0-0.6,0.1-0.8,0.2c-0.1,0-0.1,0-0.2-0.1c-0.5-0.6-0.3-1.4,0.4-1.8C31.8,13.3,32,13.3,32.3,13.3z"/>
		</g>
	</g>
	<g>
		<g>
			<path class="st4" d="M37.9,42.6c-3.2,0-6.3,0-9.5,0c-0.6,0-1.2,0-1.9,0c0.2-0.1,0.4-0.1,0.6,0c0.1,0,0.2,0,0.2,0
				c0.1,0,0.1-0.1,0.1-0.1c0-0.1,0.1-0.2,0.1-0.3c0.1-0.1,0.2-0.1,0.2-0.2c0.1-0.1,0.1,0,0.2,0c0.1,0.1,0.2,0.3,0.4,0.4
				c0.2,0.2,0.3,0.2,0.5,0.1c0.2-0.1,0.2-0.3,0.2-0.6c0-0.1-0.1-0.1-0.1-0.2c0.1,0,0.2,0,0.4,0c0.1,0,0.1,0.1,0.1,0.2
				c0,0.2,0,0.4-0.1,0.6c0,0.1,0,0.1,0.1,0.1c0,0,0.1,0,0.1,0c1.9,0,3.7,0,5.6,0c0.2,0,0.2,0,0.2-0.3c0-0.2,0-0.3,0.1-0.5
				c0-0.1,0.1-0.1,0.1-0.1c0.4,0,0.8,0,1.3,0c0.2,0,0.3-0.1,0.3-0.2c0,0.1,0,0.1,0.1,0.1c0.2,0.3,0.3,0.6,0.2,0.9
				c0,0.1,0,0.1,0.1,0.1C37.7,42.5,37.8,42.5,37.9,42.6z"/>
		</g>
	</g>
	<g>
		<g>
			<path class="st9" d="M31.7,38.7c-0.2,0-0.4,0-0.6,0c0-0.1,0.1-0.1,0.1-0.1c0,0,0.1,0,0.1-0.1c0-0.1,0-0.1,0-0.1
				c-0.1-0.1-0.2-0.2-0.4-0.1c-0.1,0.1-0.2,0.2-0.3,0.3c-0.2,0-0.3,0-0.5,0c0-0.1,0-0.2,0.1-0.3c0.1-0.1,0.2-0.2,0.4-0.4
				c0.2-0.1,0.4-0.2,0.6-0.1c0.1,0,0.2,0,0.2-0.1c0-0.1,0.1,0,0.1-0.1c0.6,0,1.3,0,1.9,0c-0.2,0.2-0.5,0.1-0.7,0.1
				c-0.1,0-0.2,0-0.2,0.2c0,0.1,0,0.2,0,0.3c0,0.1,0,0.3-0.1,0.4c0,0,0,0-0.1,0c-0.1,0-0.2-0.1-0.2-0.3c0-0.1,0-0.2,0-0.3
				c0-0.1,0-0.2-0.2-0.2c-0.1,0-0.2,0-0.3,0c0,0-0.1,0-0.1,0c0,0,0,0.1,0,0.1c0.1,0.1,0.2,0.3,0.4,0.4c0.1,0.1,0.1,0.2,0.2,0.3
				c0,0,0,0.1,0,0.1c-0.1,0-0.3,0-0.4,0c0,0-0.1,0-0.1,0c0,0-0.1-0.1-0.1-0.1C31.8,38.6,31.8,38.7,31.7,38.7z"/>
		</g>
	</g>
	<g>
		<g>
			<path class="st9" d="M30.9,37.8c0.2,0,0.3,0,0.4,0c0,0.1-0.1,0.1-0.1,0.1C31.2,37.8,31,37.8,30.9,37.8z"/>
		</g>
	</g>
	<g>
		<g>
			<path class="st3" d="M25.6,45.2c-0.2,0-0.3-0.2-0.3-0.3c0-0.2,0.2-0.4,0.4-0.4c0.1,0,0.3,0.2,0.3,0.3
				C25.9,45.1,25.9,45.3,25.6,45.2z"/>
		</g>
	</g>
	<g>
		<g>
			<path class="st3" d="M25.1,44.8C25.1,44.7,25.1,44.7,25.1,44.8L25.1,44.8C25.1,44.8,25.1,44.8,25.1,44.8z"/>
		</g>
	</g>
	<g>
		<g>
			<path class="st3" d="M34.1,21.4c-0.2,0-0.4-0.2-0.4-0.4c-0.1-0.6-0.2-1.2-0.5-1.8c-0.1-0.1-0.1-0.2-0.2-0.4
				c-0.2-0.3-0.1-0.6,0.1-0.7c0.2-0.2,0.5-0.1,0.7,0.2c0.3,0.6,0.6,1.2,0.7,1.9c0,0.2,0.1,0.4,0.1,0.6
				C34.6,21.2,34.4,21.4,34.1,21.4z"/>
		</g>
	</g>
	<g>
		<g>
			<path class="st3" d="M35.5,41.6c0,0.1-0.1,0.2-0.1,0.4c0,0.2,0,0.3,0,0.4c0,0.1,0,0.1-0.1,0.1c0,0-0.1,0-0.1,0c-2,0-4,0-5.9,0
				c0,0-0.1,0-0.1,0c-0.1,0-0.1,0,0-0.1c0.2-0.3,0.2-0.6,0.1-0.9c1.2,0,2.4,0,3.7,0C33.8,41.6,34.7,41.6,35.5,41.6z"/>
		</g>
	</g>
	<g>
		<g>
			<path class="st3" d="M32.4,38.7c0-0.1-0.1-0.2-0.2-0.3c-0.1-0.2-0.3-0.3-0.4-0.5c0,0-0.1-0.1-0.1-0.1c0,0,0.1,0,0.1,0
				c0.2,0,0.3,0,0.5,0c0.1,0,0.1,0.1,0.1,0.1c0,0.1,0,0.3,0,0.4c0,0.1,0,0.2,0.1,0.3C32.5,38.7,32.4,38.7,32.4,38.7z"/>
		</g>
	</g>
	<g>
		<g>
			<path class="st3" d="M30.7,38.7c-0.1-0.1-0.1-0.1,0-0.2c0.1-0.1,0.1-0.2,0.2-0.2c0.2-0.1,0.5,0,0.5,0.3c0,0.1,0,0.1-0.1,0.1
				c-0.1,0-0.2,0-0.2,0C31,38.7,30.8,38.7,30.7,38.7z"/>
		</g>
	</g>
	<g>
		<g>
			<path class="st3" d="M31.7,38.7c0-0.1,0-0.2,0-0.3c0.1,0,0.1,0.1,0.2,0.2c0,0,0.1,0.1,0.1,0.1C31.9,38.7,31.8,38.7,31.7,38.7z"/>
		</g>
	</g>
	<g>
		<g>
			<path class="st3" d="M36.4,42.5c-0.1,0-0.2,0-0.2-0.1c-0.1-0.1-0.1-0.4,0-0.5c0.1-0.1,0.4-0.1,0.5,0c0.2,0.2,0.2,0.4,0.1,0.6
				c0,0-0.1,0.1-0.1,0.1C36.6,42.5,36.5,42.5,36.4,42.5z"/>
		</g>
	</g>
	<g>
		<g>
			<path class="st3" d="M27.9,42.5C27.9,42.5,27.9,42.5,27.9,42.5c-0.2,0-0.3,0-0.2-0.2c0.1-0.2,0.1-0.2,0.2,0
				c0,0.1,0.1,0.1,0.1,0.2c0,0,0,0,0,0.1c0,0,0,0,0,0C28.1,42.5,28,42.5,27.9,42.5C27.9,42.5,27.9,42.5,27.9,42.5z"/>
		</g>
	</g>
	<g>
		<g>
			<path class="st3" d="M36.9,42.5c0.2-0.1,0.3-0.2,0.5-0.3c0,0.1,0,0.1,0,0.1c-0.1,0.1-0.2,0.1-0.2,0.2
				C37,42.6,36.9,42.5,36.9,42.5z"/>
		</g>
	</g>
	<g>
		<g>
			<path class="st3" d="M35.5,42.4c0-0.1,0.1-0.2,0.2-0.2C35.6,42.3,35.6,42.4,35.5,42.4z"/>
		</g>
	</g>
	<g>
		<g>
			<path class="st3" d="M36.1,42.5C36.1,42.5,36.1,42.5,36.1,42.5C36.1,42.5,36.1,42.5,36.1,42.5C36.1,42.5,36.1,42.5,36.1,42.5
				C36.1,42.5,36.1,42.5,36.1,42.5z"/>
		</g>
	</g>
</g>
<g>
	<g>
		<path d="M54.1,33.7v-7.1c0-0.6,0.2-1.1,0.5-1.4c0.3-0.3,0.7-0.5,1.2-0.5c0.5,0,0.9,0.1,1.2,0.5c0.3,0.3,0.5,0.8,0.5,1.4v7.3
			c0,0.8,0.1,1.5,0.3,2.1c0.2,0.6,0.6,1,1.1,1.3c0.5,0.3,1.3,0.5,2.2,0.5c1.3,0,2.2-0.3,2.8-0.9c0.5-0.6,0.8-1.6,0.8-2.8v-7.3
			c0-0.6,0.1-1.1,0.4-1.4c0.3-0.3,0.7-0.5,1.2-0.5c0.5,0,0.9,0.1,1.2,0.5c0.3,0.3,0.5,0.8,0.5,1.4v7.1c0,1.2-0.1,2.1-0.4,2.9
			c-0.2,0.8-0.7,1.5-1.4,2c-0.6,0.5-1.3,0.9-2.1,1.1c-0.8,0.2-1.7,0.3-2.8,0.3c-1.3,0-2.4-0.1-3.3-0.4c-0.9-0.2-1.7-0.6-2.2-1.1
			c-0.6-0.5-1-1.2-1.3-2C54.3,35.8,54.1,34.8,54.1,33.7z"/>
		<path d="M61.3,42.6c-1.5,0-2.8-0.2-3.9-0.5c-1.3-0.3-2.4-0.9-3.3-1.7c-0.9-0.8-1.6-1.8-2-3c-0.4-1-0.5-2.2-0.5-3.7v-7.1
			c0-1.6,0.6-2.6,1.2-3.1c0.8-0.8,1.8-1.2,3-1.2c1.5,0,2.5,0.7,3,1.2C59.3,24,60,25,60,26.6v7.3c0,0.7,0.1,1,0.2,1.2
			c0,0,0.3,0.1,1,0.1c0.6,0,0.9-0.1,0.9-0.1c0,0,0.1-0.3,0.1-1.1v-7.3c0-1.3,0.4-2.3,1.2-3.1c0.8-0.8,1.8-1.2,3-1.2
			c1.2,0,2.2,0.4,3,1.2c0.5,0.5,1.2,1.5,1.2,3.2v7.1c0,1.4-0.2,2.6-0.5,3.7c-0.4,1.2-1.1,2.3-2.2,3.2c-0.9,0.7-1.9,1.3-3,1.6
			C63.7,42.4,62.6,42.6,61.3,42.6z"/>
	</g>
	<g>
		<path d="M74.2,30.4v0.3c0.5-0.6,1.1-1.1,1.8-1.4c0.6-0.3,1.4-0.5,2.2-0.5c0.8,0,1.5,0.2,2.2,0.5c0.6,0.3,1.1,0.8,1.4,1.3
			c0.2,0.3,0.3,0.7,0.4,1.1c0.1,0.4,0.1,0.9,0.1,1.5v5.1c0,0.5-0.1,1-0.4,1.3c-0.3,0.3-0.6,0.4-1.1,0.4c-0.5,0-0.8-0.1-1.1-0.4
			c-0.3-0.3-0.4-0.7-0.4-1.2v-4.6c0-0.9-0.1-1.6-0.4-2.1C78.5,31.2,78,31,77.1,31c-0.6,0-1.1,0.1-1.5,0.4c-0.4,0.3-0.8,0.7-1,1.2
			c-0.1,0.4-0.2,1.2-0.2,2.3v3.4c0,0.6-0.1,1-0.4,1.3c-0.3,0.3-0.7,0.4-1.1,0.4c-0.4,0-0.8-0.1-1.1-0.4c-0.3-0.3-0.4-0.7-0.4-1.2v-8
			c0-0.5,0.1-0.9,0.4-1.2c0.2-0.3,0.6-0.4,1.1-0.4c0.3,0,0.5,0.1,0.7,0.2s0.4,0.3,0.5,0.5C74.2,29.8,74.2,30,74.2,30.4z"/>
		<path d="M80.8,42.6c-1.1,0-2.1-0.4-2.9-1.2c-0.4-0.4-0.9-1.1-1.1-2.1c-0.2,1-0.7,1.7-1.1,2.1c-0.8,0.7-1.7,1.1-2.8,1.1
			c-1.1,0-2.1-0.4-2.8-1.1c-0.6-0.6-1.2-1.5-1.2-3v-8c0-1.5,0.6-2.4,1.1-2.9c0.5-0.5,1.4-1.1,2.8-1.1c0.7,0,1.3,0.2,1.9,0.5
			c0.1,0.1,0.2,0.1,0.3,0.2c2-0.9,4.5-0.9,6.5,0.1c1.1,0.6,2,1.4,2.5,2.4c0.3,0.5,0.6,1.2,0.7,1.9c0.1,0.5,0.1,1.1,0.1,1.9v5.1
			c0,1.5-0.6,2.5-1.1,3C82.9,42.1,81.9,42.6,80.8,42.6z M71.7,30.4h1.4l0,0H71.7L71.7,30.4L71.7,30.4z"/>
	</g>
	<g>
		<path d="M86.9,27.6c-0.4,0-0.8-0.1-1.1-0.3c-0.3-0.2-0.5-0.6-0.5-1c0-0.4,0.2-0.7,0.5-1c0.3-0.3,0.7-0.4,1.1-0.4
			c0.4,0,0.7,0.1,1.1,0.3c0.3,0.2,0.5,0.6,0.5,1c0,0.4-0.1,0.8-0.4,1C87.7,27.5,87.3,27.6,86.9,27.6z M88.4,30.4v8
			c0,0.5-0.1,1-0.4,1.3c-0.3,0.3-0.7,0.4-1.1,0.4s-0.8-0.1-1.1-0.4c-0.3-0.3-0.4-0.7-0.4-1.2v-7.9c0-0.5,0.1-1,0.4-1.2
			c0.3-0.3,0.6-0.4,1.1-0.4s0.8,0.1,1.1,0.4C88.3,29.5,88.4,29.9,88.4,30.4z"/>
		<path d="M86.9,42.6c-1.1,0-2.1-0.4-2.9-1.2c-0.5-0.5-1.1-1.5-1.1-3v-7.9c0-1,0.3-1.7,0.6-2.2c-0.4-0.6-0.6-1.3-0.6-2
			c0-1.1,0.5-2.2,1.4-2.9c1.5-1.2,3.7-1.2,5.2-0.1c0.9,0.7,1.5,1.8,1.5,3c0,0.8-0.2,1.4-0.6,2c0.4,0.6,0.6,1.4,0.6,2.1v8
			c0,1.6-0.6,2.5-1.2,3C89,42.2,88,42.6,86.9,42.6z M86.9,26.4c0.3,0,0.6,0,1,0.1c0-0.1,0-0.2,0-0.2c0-0.3-0.2-0.7-0.5-1
			c-0.2-0.1-0.4-0.2-0.4-0.2c-0.1,0-0.3,0.1-0.4,0.2c-0.4,0.3-0.5,0.7-0.5,1c0,0.1,0,0.1,0,0.2C86.2,26.4,86.6,26.4,86.9,26.4z"/>
	</g>
	<g>
		<path d="M91.8,29.1h0.3v-1.7c0-0.4,0-0.8,0-1s0.1-0.5,0.2-0.7c0.1-0.2,0.3-0.3,0.5-0.5c0.2-0.1,0.5-0.2,0.7-0.2
			c0.4,0,0.7,0.1,1.1,0.4c0.2,0.2,0.3,0.4,0.4,0.6s0.1,0.6,0.1,1.1v1.9h1.1c0.4,0,0.8,0.1,1,0.3c0.2,0.2,0.3,0.4,0.3,0.7
			c0,0.4-0.2,0.6-0.5,0.8c-0.3,0.1-0.8,0.2-1.4,0.2h-0.6v5.1c0,0.4,0,0.8,0.1,1c0,0.2,0.1,0.4,0.3,0.6c0.1,0.1,0.4,0.2,0.7,0.2
			c0.2,0,0.4,0,0.7-0.1c0.3-0.1,0.6-0.1,0.7-0.1c0.2,0,0.5,0.1,0.7,0.3c0.2,0.2,0.3,0.4,0.3,0.7c0,0.4-0.3,0.8-0.8,1
			c-0.5,0.2-1.3,0.4-2.3,0.4c-1,0-1.7-0.1-2.2-0.4c-0.5-0.3-0.8-0.7-1-1.2c-0.2-0.5-0.2-1.2-0.2-2v-5.3h-0.4c-0.4,0-0.8-0.1-1-0.3
			s-0.4-0.4-0.4-0.7c0-0.3,0.1-0.5,0.4-0.7C90.9,29.2,91.3,29.1,91.8,29.1z"/>
		<path d="M95.5,42.6c-1.4,0-2.5-0.2-3.4-0.8c-1.1-0.6-1.8-1.5-2.1-2.7c-0.2-0.7-0.3-1.6-0.3-2.7v-3.3c-0.2-0.1-0.3-0.2-0.5-0.4
			c-0.8-0.7-1.3-1.6-1.3-2.6c0-1.1,0.5-2.1,1.4-2.7c0.1-0.1,0.3-0.2,0.4-0.3c0-0.4,0-0.7,0.1-1c0.1-0.6,0.3-1.2,0.6-1.6
			c0.4-0.6,0.9-1,1.5-1.4c1.6-0.8,3.3-0.6,4.6,0.5c0.7,0.6,1.1,1.3,1.3,2.1c0.1,0.3,0.1,0.7,0.1,1.1c0.4,0.1,0.8,0.3,1.2,0.6
			c0.8,0.6,1.3,1.6,1.3,2.7c0,1.4-0.7,2.5-2,3.1c-0.2,0.1-0.3,0.1-0.5,0.2v1.9c0.9,0,1.7,0.3,2.3,0.9c0.7,0.7,1.1,1.6,1.1,2.5
			c0,1.4-0.8,2.7-2.3,3.3C98,42.4,96.9,42.6,95.5,42.6z"/>
	</g>
	<g>
		<path d="M114,35.1c0,0.5-0.1,1-0.4,1.5c-0.3,0.5-0.7,1.1-1.2,1.6c-0.6,0.5-1.3,1-2.1,1.3s-1.9,0.5-3,0.5c-0.9,0-1.7-0.1-2.4-0.2
			c-0.7-0.1-1.4-0.4-1.9-0.7c-0.6-0.3-1.1-0.7-1.6-1.2c-0.4-0.5-0.8-1-1.1-1.6c-0.3-0.6-0.5-1.2-0.7-1.8c-0.2-0.7-0.2-1.3-0.2-2.1
			c0-1.2,0.2-2.3,0.6-3.2c0.4-0.9,0.9-1.7,1.7-2.4c0.7-0.7,1.6-1.2,2.5-1.5c1-0.3,2-0.5,3.1-0.5c1.3,0,2.5,0.2,3.6,0.7
			c1,0.5,1.8,1.1,2.4,1.8c0.6,0.7,0.8,1.4,0.8,2c0,0.3-0.1,0.6-0.4,0.9c-0.3,0.3-0.6,0.4-1,0.4c-0.4,0-0.7-0.1-1-0.3
			c-0.2-0.2-0.4-0.5-0.7-0.9c-0.4-0.7-0.9-1.3-1.5-1.6c-0.6-0.4-1.3-0.5-2.2-0.5c-1.4,0-2.5,0.5-3.3,1.4c-0.8,0.9-1.2,2.3-1.2,4
			c0,1.1,0.2,2.1,0.5,2.9s0.9,1.3,1.5,1.7s1.4,0.6,2.3,0.6c1,0,1.8-0.2,2.4-0.6c0.7-0.4,1.2-1.1,1.5-1.9c0.1-0.4,0.3-0.7,0.5-0.9
			c0.2-0.2,0.6-0.4,1-0.4c0.4,0,0.7,0.1,1,0.4C113.9,34.5,114,34.8,114,35.1z"/>
		<path d="M107.3,42.6c-1,0-2-0.1-2.9-0.3c-1-0.2-1.9-0.5-2.6-1c-0.8-0.4-1.5-1-2.2-1.7c-0.6-0.6-1.1-1.3-1.5-2.1
			c-0.4-0.8-0.7-1.6-0.9-2.5c-0.2-0.8-0.3-1.7-0.3-2.6c0-1.5,0.3-2.9,0.8-4.1c0.5-1.3,1.3-2.4,2.3-3.3c1-0.9,2.1-1.6,3.4-2
			c1.2-0.4,2.6-0.7,3.9-0.7c1.7,0,3.2,0.3,4.6,0.9c1.4,0.6,2.5,1.5,3.3,2.5c0.9,1.2,1.4,2.3,1.4,3.5c0,1-0.4,2-1.2,2.7
			c-0.1,0.1-0.2,0.2-0.3,0.2c0.1,0,0.1,0.1,0.2,0.1l0.1,0.1c0.8,0.7,1.2,1.7,1.2,2.8c0,0.8-0.2,1.7-0.6,2.6c-0.4,0.8-1,1.6-1.8,2.3
			c-0.8,0.8-1.8,1.4-3,1.8C110,42.3,108.7,42.6,107.3,42.6z M107.2,29.6c-0.8,0-1.2,0.3-1.4,0.5c-0.5,0.6-0.6,1.6-0.6,2.3
			c0,1,0.2,1.5,0.3,1.8c0.2,0.4,0.4,0.5,0.5,0.6c0.3,0.2,0.6,0.2,1.1,0.2c0.5,0,0.8-0.1,1.1-0.2c0.1-0.1,0.3-0.2,0.5-0.7
			c0.2-0.6,0.6-1.2,1-1.6c0.1-0.1,0.2-0.3,0.4-0.4c0,0,0,0,0,0c-0.5-0.4-0.9-1-1.2-1.5c-0.2-0.4-0.5-0.7-0.7-0.8
			C107.9,29.7,107.6,29.6,107.2,29.6z"/>
	</g>
	<g>
		<path d="M119.8,26.4v4.1c0.4-0.4,0.8-0.7,1.1-1c0.4-0.2,0.8-0.4,1.2-0.5s0.9-0.2,1.4-0.2c0.8,0,1.5,0.1,2.1,0.4
			c0.6,0.3,1.1,0.7,1.4,1.3c0.2,0.3,0.4,0.7,0.4,1.1c0.1,0.4,0.1,0.9,0.1,1.4v5.3c0,0.5-0.1,1-0.4,1.3c-0.3,0.3-0.7,0.4-1.1,0.4
			c-1,0-1.5-0.6-1.5-1.7v-4.6c0-0.9-0.1-1.6-0.4-2c-0.3-0.5-0.8-0.7-1.7-0.7c-0.6,0-1,0.1-1.5,0.4c-0.4,0.3-0.8,0.7-1,1.1
			c-0.2,0.4-0.2,1.1-0.2,2.2v3.6c0,0.5-0.1,1-0.4,1.2c-0.3,0.3-0.7,0.4-1.1,0.4c-1,0-1.5-0.6-1.5-1.7v-12c0-0.6,0.1-1,0.4-1.3
			c0.3-0.3,0.6-0.4,1.1-0.4s0.9,0.1,1.1,0.4C119.7,25.5,119.8,25.9,119.8,26.4z"/>
		<path d="M118.3,42.6c-2.4,0-4-1.7-4-4.2v-12c0-1.5,0.6-2.5,1.1-3c0.6-0.6,1.5-1.2,2.9-1.2c1.5,0,2.4,0.6,2.9,1.2
			c0.5,0.5,1.1,1.4,1.1,3v0c1.5-0.2,3.2,0,4.5,0.6c1,0.5,1.9,1.3,2.5,2.2c0.4,0.5,0.6,1.2,0.8,2c0.1,0.6,0.2,1.2,0.2,1.8v5.3
			c0,1.5-0.6,2.5-1.1,3c-0.5,0.5-1.5,1.2-2.9,1.2c-2.1,0-3.6-1.2-3.9-3.2c-0.2,1-0.6,1.6-1,2C120.7,41.9,119.8,42.6,118.3,42.6z"/>
	</g>
	<g>
		<path d="M139.3,35.1h-6c0,0.6,0.1,1.2,0.4,1.7c0.3,0.5,0.6,0.8,1.1,1.1c0.5,0.2,1,0.4,1.5,0.4c0.4,0,0.7,0,1-0.1
			c0.3-0.1,0.6-0.2,0.9-0.4c0.3-0.2,0.6-0.3,0.8-0.5c0.2-0.2,0.6-0.4,0.9-0.8c0.2-0.1,0.4-0.2,0.7-0.2c0.3,0,0.6,0.1,0.8,0.2
			c0.2,0.2,0.3,0.4,0.3,0.7c0,0.3-0.1,0.5-0.3,0.9c-0.2,0.3-0.5,0.7-1,1c-0.4,0.3-1,0.6-1.7,0.8c-0.7,0.2-1.4,0.3-2.3,0.3
			c-2,0-3.5-0.5-4.6-1.5c-1.1-1-1.6-2.4-1.6-4.1c0-0.8,0.1-1.6,0.4-2.3c0.3-0.7,0.7-1.3,1.2-1.8c0.5-0.5,1.2-0.9,1.9-1.1
			c0.8-0.3,1.6-0.4,2.5-0.4c1.2,0,2.2,0.2,3.1,0.7s1.5,1,1.9,1.8c0.4,0.7,0.6,1.5,0.6,2.2c0,0.7-0.2,1.1-0.7,1.3
			C140.8,35,140.1,35.1,139.3,35.1z M133.3,33.6h5.6c-0.1-0.9-0.4-1.6-0.9-2.1c-0.5-0.5-1.1-0.7-1.9-0.7c-0.8,0-1.4,0.2-1.9,0.7
			C133.7,31.9,133.4,32.6,133.3,33.6z"/>
		<path d="M136.4,42.6c-2.6,0-4.7-0.7-6.3-2.2c-1.6-1.5-2.4-3.5-2.4-5.9c0-1.1,0.2-2.2,0.6-3.2c0.4-1,1-2,1.8-2.7
			c0.8-0.7,1.7-1.3,2.8-1.7c1.1-0.4,2.2-0.5,3.4-0.5c1.6,0,3,0.3,4.3,1c1.3,0.7,2.2,1.6,2.9,2.7c0.7,1.1,1,2.3,1,3.5
			c0,0.9-0.2,1.6-0.5,2.2c0.2,0.5,0.3,1,0.3,1.5c0,0.8-0.2,1.5-0.7,2.2c-0.4,0.6-1,1.2-1.7,1.7c-0.6,0.4-1.4,0.8-2.3,1.1
			C138.6,42.4,137.5,42.6,136.4,42.6z"/>
	</g>
	<g>
		<path d="M154.4,36.4c0,0.8-0.2,1.4-0.6,1.9c-0.4,0.5-1,0.9-1.8,1.2c-0.8,0.3-1.8,0.4-2.9,0.4c-1.1,0-2.1-0.1-2.8-0.5
			s-1.4-0.7-1.7-1.1s-0.6-0.9-0.6-1.4c0-0.3,0.1-0.6,0.4-0.8c0.2-0.2,0.5-0.3,0.9-0.3c0.3,0,0.6,0.1,0.7,0.2
			c0.2,0.1,0.3,0.3,0.5,0.6c0.3,0.5,0.7,0.9,1.1,1.1c0.4,0.2,1,0.4,1.8,0.4c0.6,0,1.1-0.1,1.5-0.4c0.4-0.2,0.6-0.5,0.6-0.8
			c0-0.5-0.2-0.8-0.6-1.1s-1.1-0.4-2-0.6c-1.1-0.2-1.9-0.5-2.6-0.7c-0.7-0.3-1.2-0.6-1.6-1c-0.4-0.4-0.6-0.9-0.6-1.6
			c0-0.5,0.2-1.1,0.6-1.6c0.4-0.5,0.9-0.9,1.6-1.2c0.7-0.3,1.6-0.4,2.6-0.4c0.8,0,1.5,0.1,2.1,0.2c0.6,0.1,1.2,0.3,1.6,0.6
			c0.4,0.3,0.7,0.5,1,0.8c0.2,0.3,0.3,0.6,0.3,0.9c0,0.3-0.1,0.6-0.4,0.8c-0.2,0.2-0.6,0.3-1,0.3c-0.3,0-0.6-0.1-0.8-0.2
			c-0.2-0.2-0.5-0.4-0.8-0.7c-0.2-0.3-0.5-0.5-0.8-0.6c-0.3-0.2-0.7-0.2-1.3-0.2c-0.6,0-1,0.1-1.4,0.3c-0.4,0.2-0.6,0.5-0.6,0.8
			c0,0.3,0.1,0.5,0.4,0.7c0.3,0.2,0.6,0.3,1.1,0.5c0.5,0.1,1.1,0.3,1.9,0.4c1,0.2,1.7,0.5,2.3,0.7c0.6,0.3,1.1,0.6,1.4,1
			C154.2,35.5,154.4,36,154.4,36.4z"/>
		<path d="M149,42.6c-1.4,0-2.7-0.2-3.7-0.6c-1.2-0.5-2.1-1.1-2.8-1.9c-0.8-0.9-1.1-1.9-1.1-3c0-0.9,0.3-1.7,0.9-2.4
			c-0.5-0.8-0.8-1.7-0.8-2.7c0-1.1,0.4-2.1,1.1-3.1c0.6-0.9,1.5-1.5,2.7-2c1-0.4,2.2-0.6,3.5-0.6c1,0,1.9,0.1,2.7,0.3
			c0.9,0.2,1.6,0.5,2.3,0.9c0.7,0.4,1.3,0.9,1.7,1.5c0.6,0.8,0.8,1.6,0.8,2.4c0,0.7-0.2,1.4-0.6,2c0.1,0.1,0.1,0.1,0.2,0.2
			c0.7,0.9,1,1.9,1,2.9c0,1.3-0.4,2.5-1.1,3.5c-0.7,0.9-1.7,1.6-3,2.1C151.6,42.4,150.4,42.6,149,42.6z"/>
	</g>
	<g>
		<path d="M166.9,36.4c0,0.8-0.2,1.4-0.6,1.9c-0.4,0.5-1,0.9-1.8,1.2c-0.8,0.3-1.8,0.4-2.9,0.4c-1.1,0-2.1-0.1-2.8-0.5
			c-0.8-0.3-1.4-0.7-1.7-1.1c-0.4-0.5-0.6-0.9-0.6-1.4c0-0.3,0.1-0.6,0.4-0.8c0.2-0.2,0.5-0.3,0.9-0.3c0.3,0,0.6,0.1,0.7,0.2
			c0.2,0.1,0.3,0.3,0.5,0.6c0.3,0.5,0.7,0.9,1.1,1.1c0.4,0.2,1,0.4,1.8,0.4c0.6,0,1.1-0.1,1.5-0.4c0.4-0.2,0.6-0.5,0.6-0.8
			c0-0.5-0.2-0.8-0.6-1.1c-0.4-0.2-1.1-0.4-2-0.6c-1.1-0.2-1.9-0.5-2.6-0.7c-0.7-0.3-1.2-0.6-1.6-1c-0.4-0.4-0.6-0.9-0.6-1.6
			c0-0.5,0.2-1.1,0.6-1.6c0.4-0.5,0.9-0.9,1.6-1.2c0.7-0.3,1.6-0.4,2.6-0.4c0.8,0,1.5,0.1,2.1,0.2c0.6,0.1,1.2,0.3,1.6,0.6
			c0.4,0.3,0.7,0.5,1,0.8c0.2,0.3,0.3,0.6,0.3,0.9c0,0.3-0.1,0.6-0.4,0.8c-0.2,0.2-0.6,0.3-1,0.3c-0.3,0-0.6-0.1-0.8-0.2
			c-0.2-0.2-0.5-0.4-0.8-0.7c-0.2-0.3-0.5-0.5-0.8-0.6c-0.3-0.2-0.7-0.2-1.3-0.2c-0.6,0-1,0.1-1.4,0.3c-0.4,0.2-0.6,0.5-0.6,0.8
			c0,0.3,0.1,0.5,0.4,0.7c0.3,0.2,0.6,0.3,1.1,0.5c0.5,0.1,1.1,0.3,1.9,0.4c1,0.2,1.7,0.5,2.3,0.7c0.6,0.3,1.1,0.6,1.4,1
			C166.7,35.5,166.9,36,166.9,36.4z"/>
		<path d="M161.5,42.6c-1.4,0-2.7-0.2-3.7-0.6c-1.2-0.5-2.1-1.1-2.8-1.9c-0.8-0.9-1.1-1.9-1.1-3c0-0.9,0.3-1.7,0.9-2.4
			c-0.5-0.8-0.8-1.7-0.8-2.7c0-1.1,0.4-2.1,1.1-3.1c0.6-0.9,1.5-1.5,2.7-2c1-0.4,2.2-0.6,3.5-0.6c1,0,1.9,0.1,2.7,0.3
			c0.9,0.2,1.6,0.5,2.3,0.9c0.7,0.4,1.3,0.9,1.7,1.5c0.5,0.7,0.8,1.5,0.8,2.4c0,0.7-0.2,1.4-0.6,2c0.1,0.1,0.1,0.1,0.2,0.2l0.1,0.1
			c0.6,0.8,0.9,1.8,0.9,2.8c0,1.3-0.4,2.5-1.1,3.5c-0.7,0.9-1.7,1.6-3,2.1C164.1,42.4,162.9,42.6,161.5,42.6z M165.6,30.2
			L165.6,30.2L165.6,30.2z"/>
	</g>
</g>
<g>
	<g>
		<path class="st10" d="M54.1,33.7v-7.1c0-0.6,0.2-1.1,0.5-1.4c0.3-0.3,0.7-0.5,1.2-0.5c0.5,0,0.9,0.1,1.2,0.5
			c0.3,0.3,0.5,0.8,0.5,1.4v7.3c0,0.8,0.1,1.5,0.3,2.1c0.2,0.6,0.6,1,1.1,1.3c0.5,0.3,1.3,0.5,2.2,0.5c1.3,0,2.2-0.3,2.8-0.9
			c0.5-0.6,0.8-1.6,0.8-2.8v-7.3c0-0.6,0.1-1.1,0.4-1.4c0.3-0.3,0.7-0.5,1.2-0.5c0.5,0,0.9,0.1,1.2,0.5c0.3,0.3,0.5,0.8,0.5,1.4v7.1
			c0,1.2-0.1,2.1-0.4,2.9c-0.2,0.8-0.7,1.5-1.4,2c-0.6,0.5-1.3,0.9-2.1,1.1c-0.8,0.2-1.7,0.3-2.8,0.3c-1.3,0-2.4-0.1-3.3-0.4
			c-0.9-0.2-1.7-0.6-2.2-1.1c-0.6-0.5-1-1.2-1.3-2C54.3,35.8,54.1,34.8,54.1,33.7z"/>
	</g>
	<g>
		<path class="st10" d="M74.2,30.4v0.3c0.5-0.6,1.1-1.1,1.8-1.4c0.6-0.3,1.4-0.5,2.2-0.5c0.8,0,1.5,0.2,2.2,0.5
			c0.6,0.3,1.1,0.8,1.4,1.3c0.2,0.3,0.3,0.7,0.4,1.1c0.1,0.4,0.1,0.9,0.1,1.5v5.1c0,0.5-0.1,1-0.4,1.3c-0.3,0.3-0.6,0.4-1.1,0.4
			c-0.5,0-0.8-0.1-1.1-0.4c-0.3-0.3-0.4-0.7-0.4-1.2v-4.6c0-0.9-0.1-1.6-0.4-2.1C78.5,31.2,78,31,77.1,31c-0.6,0-1.1,0.1-1.5,0.4
			c-0.4,0.3-0.8,0.7-1,1.2c-0.1,0.4-0.2,1.2-0.2,2.3v3.4c0,0.6-0.1,1-0.4,1.3c-0.3,0.3-0.7,0.4-1.1,0.4c-0.4,0-0.8-0.1-1.1-0.4
			c-0.3-0.3-0.4-0.7-0.4-1.2v-8c0-0.5,0.1-0.9,0.4-1.2c0.2-0.3,0.6-0.4,1.1-0.4c0.3,0,0.5,0.1,0.7,0.2s0.4,0.3,0.5,0.5
			C74.2,29.8,74.2,30,74.2,30.4z"/>
	</g>
	<g>
		<path class="st10" d="M86.9,27.6c-0.4,0-0.8-0.1-1.1-0.3c-0.3-0.2-0.5-0.6-0.5-1c0-0.4,0.2-0.7,0.5-1c0.3-0.3,0.7-0.4,1.1-0.4
			c0.4,0,0.7,0.1,1.1,0.3c0.3,0.2,0.5,0.6,0.5,1c0,0.4-0.1,0.8-0.4,1C87.7,27.5,87.3,27.6,86.9,27.6z M88.4,30.4v8
			c0,0.5-0.1,1-0.4,1.3c-0.3,0.3-0.7,0.4-1.1,0.4s-0.8-0.1-1.1-0.4c-0.3-0.3-0.4-0.7-0.4-1.2v-7.9c0-0.5,0.1-1,0.4-1.2
			c0.3-0.3,0.6-0.4,1.1-0.4s0.8,0.1,1.1,0.4C88.3,29.5,88.4,29.9,88.4,30.4z"/>
	</g>
	<g>
		<path class="st10" d="M91.8,29.1h0.3v-1.7c0-0.4,0-0.8,0-1s0.1-0.5,0.2-0.7c0.1-0.2,0.3-0.3,0.5-0.5c0.2-0.1,0.5-0.2,0.7-0.2
			c0.4,0,0.7,0.1,1.1,0.4c0.2,0.2,0.3,0.4,0.4,0.6s0.1,0.6,0.1,1.1v1.9h1.1c0.4,0,0.8,0.1,1,0.3c0.2,0.2,0.3,0.4,0.3,0.7
			c0,0.4-0.2,0.6-0.5,0.8c-0.3,0.1-0.8,0.2-1.4,0.2h-0.6v5.1c0,0.4,0,0.8,0.1,1c0,0.2,0.1,0.4,0.3,0.6c0.1,0.1,0.4,0.2,0.7,0.2
			c0.2,0,0.4,0,0.7-0.1c0.3-0.1,0.6-0.1,0.7-0.1c0.2,0,0.5,0.1,0.7,0.3c0.2,0.2,0.3,0.4,0.3,0.7c0,0.4-0.3,0.8-0.8,1
			c-0.5,0.2-1.3,0.4-2.3,0.4c-1,0-1.7-0.1-2.2-0.4c-0.5-0.3-0.8-0.7-1-1.2c-0.2-0.5-0.2-1.2-0.2-2v-5.3h-0.4c-0.4,0-0.8-0.1-1-0.3
			s-0.4-0.4-0.4-0.7c0-0.3,0.1-0.5,0.4-0.7C90.9,29.2,91.3,29.1,91.8,29.1z"/>
	</g>
	<g>
		<path class="st10" d="M114,35.1c0,0.5-0.1,1-0.4,1.5c-0.3,0.5-0.7,1.1-1.2,1.6c-0.6,0.5-1.3,1-2.1,1.3s-1.9,0.5-3,0.5
			c-0.9,0-1.7-0.1-2.4-0.2c-0.7-0.1-1.4-0.4-1.9-0.7c-0.6-0.3-1.1-0.7-1.6-1.2c-0.4-0.5-0.8-1-1.1-1.6c-0.3-0.6-0.5-1.2-0.7-1.8
			c-0.2-0.7-0.2-1.3-0.2-2.1c0-1.2,0.2-2.3,0.6-3.2c0.4-0.9,0.9-1.7,1.7-2.4c0.7-0.7,1.6-1.2,2.5-1.5c1-0.3,2-0.5,3.1-0.5
			c1.3,0,2.5,0.2,3.6,0.7c1,0.5,1.8,1.1,2.4,1.8c0.6,0.7,0.8,1.4,0.8,2c0,0.3-0.1,0.6-0.4,0.9c-0.3,0.3-0.6,0.4-1,0.4
			c-0.4,0-0.7-0.1-1-0.3c-0.2-0.2-0.4-0.5-0.7-0.9c-0.4-0.7-0.9-1.3-1.5-1.6c-0.6-0.4-1.3-0.5-2.2-0.5c-1.4,0-2.5,0.5-3.3,1.4
			c-0.8,0.9-1.2,2.3-1.2,4c0,1.1,0.2,2.1,0.5,2.9s0.9,1.3,1.5,1.7s1.4,0.6,2.3,0.6c1,0,1.8-0.2,2.4-0.6c0.7-0.4,1.2-1.1,1.5-1.9
			c0.1-0.4,0.3-0.7,0.5-0.9c0.2-0.2,0.6-0.4,1-0.4c0.4,0,0.7,0.1,1,0.4C113.9,34.5,114,34.8,114,35.1z"/>
	</g>
	<g>
		<path class="st10" d="M119.8,26.4v4.1c0.4-0.4,0.8-0.7,1.1-1c0.4-0.2,0.8-0.4,1.2-0.5s0.9-0.2,1.4-0.2c0.8,0,1.5,0.1,2.1,0.4
			c0.6,0.3,1.1,0.7,1.4,1.3c0.2,0.3,0.4,0.7,0.4,1.1c0.1,0.4,0.1,0.9,0.1,1.4v5.3c0,0.5-0.1,1-0.4,1.3c-0.3,0.3-0.7,0.4-1.1,0.4
			c-1,0-1.5-0.6-1.5-1.7v-4.6c0-0.9-0.1-1.6-0.4-2c-0.3-0.5-0.8-0.7-1.7-0.7c-0.6,0-1,0.1-1.5,0.4c-0.4,0.3-0.8,0.7-1,1.1
			c-0.2,0.4-0.2,1.1-0.2,2.2v3.6c0,0.5-0.1,1-0.4,1.2c-0.3,0.3-0.7,0.4-1.1,0.4c-1,0-1.5-0.6-1.5-1.7v-12c0-0.6,0.1-1,0.4-1.3
			c0.3-0.3,0.6-0.4,1.1-0.4s0.9,0.1,1.1,0.4C119.7,25.5,119.8,25.9,119.8,26.4z"/>
	</g>
	<g>
		<path class="st10" d="M139.3,35.1h-6c0,0.6,0.1,1.2,0.4,1.7c0.3,0.5,0.6,0.8,1.1,1.1c0.5,0.2,1,0.4,1.5,0.4c0.4,0,0.7,0,1-0.1
			c0.3-0.1,0.6-0.2,0.9-0.4c0.3-0.2,0.6-0.3,0.8-0.5c0.2-0.2,0.6-0.4,0.9-0.8c0.2-0.1,0.4-0.2,0.7-0.2c0.3,0,0.6,0.1,0.8,0.2
			c0.2,0.2,0.3,0.4,0.3,0.7c0,0.3-0.1,0.5-0.3,0.9c-0.2,0.3-0.5,0.7-1,1c-0.4,0.3-1,0.6-1.7,0.8c-0.7,0.2-1.4,0.3-2.3,0.3
			c-2,0-3.5-0.5-4.6-1.5c-1.1-1-1.6-2.4-1.6-4.1c0-0.8,0.1-1.6,0.4-2.3c0.3-0.7,0.7-1.3,1.2-1.8c0.5-0.5,1.2-0.9,1.9-1.1
			c0.8-0.3,1.6-0.4,2.5-0.4c1.2,0,2.2,0.2,3.1,0.7s1.5,1,1.9,1.8c0.4,0.7,0.6,1.5,0.6,2.2c0,0.7-0.2,1.1-0.7,1.3
			C140.8,35,140.1,35.1,139.3,35.1z M133.3,33.6h5.6c-0.1-0.9-0.4-1.6-0.9-2.1c-0.5-0.5-1.1-0.7-1.9-0.7c-0.8,0-1.4,0.2-1.9,0.7
			C133.7,31.9,133.4,32.6,133.3,33.6z"/>
	</g>
	<g>
		<path class="st10" d="M154.4,36.4c0,0.8-0.2,1.4-0.6,1.9c-0.4,0.5-1,0.9-1.8,1.2c-0.8,0.3-1.8,0.4-2.9,0.4c-1.1,0-2.1-0.1-2.8-0.5
			s-1.4-0.7-1.7-1.1s-0.6-0.9-0.6-1.4c0-0.3,0.1-0.6,0.4-0.8c0.2-0.2,0.5-0.3,0.9-0.3c0.3,0,0.6,0.1,0.7,0.2
			c0.2,0.1,0.3,0.3,0.5,0.6c0.3,0.5,0.7,0.9,1.1,1.1c0.4,0.2,1,0.4,1.8,0.4c0.6,0,1.1-0.1,1.5-0.4c0.4-0.2,0.6-0.5,0.6-0.8
			c0-0.5-0.2-0.8-0.6-1.1s-1.1-0.4-2-0.6c-1.1-0.2-1.9-0.5-2.6-0.7c-0.7-0.3-1.2-0.6-1.6-1c-0.4-0.4-0.6-0.9-0.6-1.6
			c0-0.5,0.2-1.1,0.6-1.6c0.4-0.5,0.9-0.9,1.6-1.2c0.7-0.3,1.6-0.4,2.6-0.4c0.8,0,1.5,0.1,2.1,0.2c0.6,0.1,1.2,0.3,1.6,0.6
			c0.4,0.3,0.7,0.5,1,0.8c0.2,0.3,0.3,0.6,0.3,0.9c0,0.3-0.1,0.6-0.4,0.8c-0.2,0.2-0.6,0.3-1,0.3c-0.3,0-0.6-0.1-0.8-0.2
			c-0.2-0.2-0.5-0.4-0.8-0.7c-0.2-0.3-0.5-0.5-0.8-0.6c-0.3-0.2-0.7-0.2-1.3-0.2c-0.6,0-1,0.1-1.4,0.3c-0.4,0.2-0.6,0.5-0.6,0.8
			c0,0.3,0.1,0.5,0.4,0.7c0.3,0.2,0.6,0.3,1.1,0.5c0.5,0.1,1.1,0.3,1.9,0.4c1,0.2,1.7,0.5,2.3,0.7c0.6,0.3,1.1,0.6,1.4,1
			C154.2,35.5,154.4,36,154.4,36.4z"/>
	</g>
	<g>
		<path class="st10" d="M166.9,36.4c0,0.8-0.2,1.4-0.6,1.9c-0.4,0.5-1,0.9-1.8,1.2c-0.8,0.3-1.8,0.4-2.9,0.4c-1.1,0-2.1-0.1-2.8-0.5
			c-0.8-0.3-1.4-0.7-1.7-1.1c-0.4-0.5-0.6-0.9-0.6-1.4c0-0.3,0.1-0.6,0.4-0.8c0.2-0.2,0.5-0.3,0.9-0.3c0.3,0,0.6,0.1,0.7,0.2
			c0.2,0.1,0.3,0.3,0.5,0.6c0.3,0.5,0.7,0.9,1.1,1.1c0.4,0.2,1,0.4,1.8,0.4c0.6,0,1.1-0.1,1.5-0.4c0.4-0.2,0.6-0.5,0.6-0.8
			c0-0.5-0.2-0.8-0.6-1.1c-0.4-0.2-1.1-0.4-2-0.6c-1.1-0.2-1.9-0.5-2.6-0.7c-0.7-0.3-1.2-0.6-1.6-1c-0.4-0.4-0.6-0.9-0.6-1.6
			c0-0.5,0.2-1.1,0.6-1.6c0.4-0.5,0.9-0.9,1.6-1.2c0.7-0.3,1.6-0.4,2.6-0.4c0.8,0,1.5,0.1,2.1,0.2c0.6,0.1,1.2,0.3,1.6,0.6
			c0.4,0.3,0.7,0.5,1,0.8c0.2,0.3,0.3,0.6,0.3,0.9c0,0.3-0.1,0.6-0.4,0.8c-0.2,0.2-0.6,0.3-1,0.3c-0.3,0-0.6-0.1-0.8-0.2
			c-0.2-0.2-0.5-0.4-0.8-0.7c-0.2-0.3-0.5-0.5-0.8-0.6c-0.3-0.2-0.7-0.2-1.3-0.2c-0.6,0-1,0.1-1.4,0.3c-0.4,0.2-0.6,0.5-0.6,0.8
			c0,0.3,0.1,0.5,0.4,0.7c0.3,0.2,0.6,0.3,1.1,0.5c0.5,0.1,1.1,0.3,1.9,0.4c1,0.2,1.7,0.5,2.3,0.7c0.6,0.3,1.1,0.6,1.4,1
			C166.7,35.5,166.9,36,166.9,36.4z"/>
	</g>
</g>
</svg>
